
<svg version="1.1" id="Layer_1" xmlns="http://www.w3.org/2000/svg" xmlns:xlink="http://www.w3.org/1999/xlink" x="0px" y="0px"
	 width="100%" viewBox="0 0 1024 816" enable-background="new 0 0 1024 816" xml:space="preserve">
<path fill="#000000" opacity="1.000000" stroke="none" 
	d="
M550.822021,463.214783 
	C531.045410,452.227997 509.859619,445.517334 489.342896,437.222015 
	C460.635956,425.615173 434.202423,410.513397 412.885010,387.531311 
	C398.338867,371.849304 390.590729,353.598053 393.042023,332.004791 
	C395.355103,311.629059 404.636108,294.333008 418.292297,279.262238 
	C424.215424,272.725555 430.747040,266.883026 437.823212,261.766174 
	C439.636810,263.083923 438.480042,264.155334 438.051849,265.023224 
	C425.015106,291.446259 431.888947,314.500244 450.280090,335.334045 
	C466.137543,353.297577 486.897858,363.800537 508.676880,372.655243 
	C527.785889,380.424347 547.329407,387.198090 565.577942,396.970886 
	C582.265259,405.907562 597.745483,416.483215 610.591492,430.585999 
	C638.707214,461.452637 641.046997,496.031281 617.284668,530.291077 
	C609.810608,541.066956 600.470703,550.047424 590.236816,558.150269 
	C589.600342,558.654236 588.965393,559.269287 587.956421,558.984192 
	C586.965332,557.788452 588.002686,556.858765 588.470093,555.887634 
	C602.393250,526.960144 596.281433,498.645142 571.607422,477.661469 
	C565.239502,472.245972 558.408203,467.511200 550.822021,463.214783 
z"/>
<path fill="#000000" opacity="1.000000" stroke="none" 
	d="
M434.073792,547.803467 
	C457.203705,553.835022 480.058594,555.385010 503.074646,549.656128 
	C539.429138,540.607300 542.776611,506.917694 524.334167,483.110199 
	C515.180603,471.293762 503.103973,463.036896 490.752167,455.073059 
	C483.332550,450.289276 475.933777,445.471313 468.603394,440.552765 
	C467.226288,439.628784 465.176514,439.093964 465.068695,436.687500 
	C465.627136,436.687500 466.170197,436.522064 466.523956,436.711060 
	C493.962830,451.371765 522.626404,463.892609 547.429260,483.157501 
	C559.090637,492.215149 568.883728,502.671631 573.379028,517.141296 
	C582.822693,547.538391 566.930664,575.426575 535.813599,582.182312 
	C512.082397,587.334412 488.777863,583.763367 465.947632,576.616150 
	C445.950073,570.355774 428.033722,560.363708 413.035553,545.521606 
	C410.947235,543.455078 408.689301,541.463867 406.998260,537.489990 
	C416.495453,541.208130 424.590363,545.858154 434.073792,547.803467 
z"/>
<path fill="#000000" opacity="1.000000" stroke="none" 
	d="
M469.182678,329.820312 
	C458.268494,319.040161 451.296509,306.595917 450.067322,291.479065 
	C448.593140,273.349396 456.105835,252.727310 478.505463,242.665985 
	C492.145508,236.539246 506.602966,235.819427 521.118530,236.883118 
	C542.551208,238.453674 563.107300,243.717819 582.344482,253.563492 
	C594.753662,259.914551 605.894470,268.002625 615.510620,278.121155 
	C616.683350,279.355103 618.516785,280.325226 618.106445,283.259918 
	C615.252930,281.977173 612.636902,280.724823 609.963196,279.610962 
	C581.868530,267.906921 552.948120,264.054596 523.115784,271.334229 
	C508.305420,274.948242 496.066650,282.364960 492.116638,298.412201 
	C489.116516,310.600342 491.511383,322.088379 498.206512,332.816101 
	C507.431641,347.597748 521.438721,356.873474 535.556580,366.088776 
	C542.807312,370.821564 550.087402,375.510437 557.281616,380.327667 
	C558.725037,381.294220 560.582336,382.007385 561.106445,383.937347 
	C560.644714,384.840149 559.956238,384.672699 559.403625,384.353668 
	C540.510620,373.446259 520.047485,365.484772 501.696899,353.555695 
	C490.526154,346.293976 479.177460,339.286896 469.182678,329.820312 
z"/>
</svg>